<?xml version="1.0" standalone="no"?>
<!DOCTYPE svg PUBLIC "-//W3C//DTD SVG 20010904//EN"
 "http://www.w3.org/TR/2001/REC-SVG-20010904/DTD/svg10.dtd">
<svg version="1.0" xmlns="http://www.w3.org/2000/svg"
 width="300.000000pt" height="170.000000pt" viewBox="0 0 300.000000 170.000000"
 preserveAspectRatio="xMidYMid meet">
<metadata>
Created by potrace 1.10, written by Peter Selinger 2001-2011
</metadata>
<g transform="translate(0.000000,170.000000) scale(0.100000,-0.100000)"
fill="#ffff" stroke="none">
<path d="M730 1280 c7 -13 38 -48 68 -77 61 -58 63 -67 6 -28 -26 17 -49 25
-78 24 l-41 -1 40 -9 c21 -5 60 -23 85 -39 25 -16 57 -32 73 -35 15 -4 27 -12
27 -17 0 -15 -50 -1 -84 24 -23 17 -37 19 -75 13 -25 -4 -89 -12 -142 -19 -57
-7 -108 -20 -124 -30 -36 -24 -28 -28 20 -11 47 16 55 12 30 -15 -18 -20 -18
-20 56 -21 41 0 82 -4 93 -8 11 -4 33 0 55 10 37 18 171 33 171 19 0 -10 -36
-19 -85 -22 -29 -1 -22 -3 25 -7 l65 -7 -35 -12 -35 -12 38 6 c26 3 37 2 32
-5 -3 -6 -13 -11 -21 -11 -8 0 -14 -5 -14 -10 0 -6 15 -4 37 5 32 13 39 13 58
1 12 -8 25 -24 28 -35 5 -21 0 -21 -75 -6 -23 4 -33 -11 -13 -19 12 -4 15 -32
15 -162 0 -147 -1 -156 -20 -161 -40 -11 -18 -18 55 -18 41 0 75 2 75 4 0 2
-7 9 -15 15 -13 9 -16 40 -18 161 -2 144 -1 150 18 147 34 -5 56 -41 53 -86
-2 -33 -8 -43 -30 -54 l-28 -13 44 -87 c25 -48 58 -101 74 -119 92 -99 271
-109 390 -23 23 18 42 36 42 41 0 6 -15 -1 -33 -15 -100 -77 -252 -73 -326 8
l-24 26 34 1 c19 1 26 3 17 6 -22 6 -22 6 3 81 21 63 29 69 71 53 40 -15 65
-125 31 -134 -10 -3 23 -5 72 -5 70 0 84 2 63 9 -14 6 -29 18 -33 27 -30 75
-125 348 -125 358 0 39 -19 2 -49 -96 -31 -98 -37 -110 -63 -119 -28 -10 -46
-36 -34 -48 3 -4 12 -1 18 5 19 19 41 15 33 -5 -4 -10 -15 -40 -25 -67 l-18
-48 -39 74 -39 75 28 25 c57 52 25 138 -56 153 -20 4 -36 11 -36 16 0 5 -16
25 -36 45 -40 38 -40 55 -2 30 14 -9 28 -13 31 -9 4 3 7 0 7 -7 0 -7 3 -10 7
-7 3 4 16 0 29 -8 20 -13 23 -12 28 1 11 30 6 42 -21 47 -16 3 -45 22 -66 41
-20 20 -41 36 -46 36 -6 0 -29 27 -52 60 -48 69 -64 73 -25 6 14 -24 26 -47
26 -51 0 -8 -89 64 -154 125 -35 32 -45 38 -36 20z m145 -208 c-7 -7 -95 28
-95 38 0 5 22 -1 50 -13 27 -11 48 -23 45 -25z m-128 23 c4 -12 -48 -45 -70
-45 -9 0 -28 5 -44 11 l-28 10 40 19 c42 20 96 22 102 5z m207 -21 c10 -25 7
-34 -9 -34 -8 0 -15 4 -15 9 0 5 -3 16 -6 25 -4 10 -1 16 9 16 8 0 18 -7 21
-16z m365 -305 c1 -3 -10 -4 -24 -1 -14 2 -25 5 -25 7 0 1 5 17 12 36 l11 33
13 -34 c7 -19 13 -38 13 -41z"/>
<path d="M558 1173 c-37 -9 -16 -18 35 -15 36 3 59 -1 68 -10 9 -9 25 -11 44
-7 l30 6 -37 16 c-35 16 -101 20 -140 10z"/>
<path d="M442 1020 c-43 -27 -57 -62 -37 -100 22 -42 64 -68 141 -86 105 -24
178 -10 261 52 17 13 35 24 39 24 13 0 -30 -42 -57 -56 -24 -12 -27 -20 -31
-86 -6 -85 -30 -140 -83 -186 -32 -29 -53 -37 -71 -29 -3 1 -5 59 -5 128 l2
127 -36 6 c-20 4 -43 10 -51 13 -12 4 -14 -17 -14 -130 0 -145 -7 -167 -53
-167 -12 0 -17 -4 -12 -8 6 -5 60 -6 120 -3 89 5 120 11 159 31 92 47 157 158
155 268 0 31 -4 66 -8 77 -5 11 -4 25 2 33 7 9 6 11 -6 6 -10 -3 -20 2 -27 15
-23 43 -117 71 -295 85 -49 4 -67 1 -93 -14z m227 -41 c35 -19 81 -80 81 -107
0 -16 -108 -35 -159 -28 -78 11 -161 72 -161 119 0 49 160 61 239 16z m114
-33 c21 -16 22 -36 2 -36 -12 0 -35 28 -35 44 0 10 14 6 33 -8z m54 -149 c-6
-47 -26 -97 -39 -97 -7 0 -2 97 8 128 2 6 11 12 20 12 13 0 15 -8 11 -43z
m-281 -62 c1 -25 -2 -45 -7 -45 -10 0 -12 73 -2 83 3 4 7 7 7 7 1 0 2 -20 2
-45z m3 -106 c1 -58 -10 -87 -19 -50 -7 30 0 101 10 101 4 0 8 -23 9 -51z"/>
<path d="M476 968 c-24 -33 -20 -59 3 -30 26 31 33 28 25 -12 -5 -31 -3 -36
25 -50 16 -9 39 -16 51 -16 18 0 20 6 20 65 l0 65 -54 0 c-45 0 -58 -4 -70
-22z m82 -33 c3 -25 2 -27 -12 -16 -9 8 -14 16 -11 19 3 3 -1 12 -7 20 -10 12
-9 14 7 11 14 -3 21 -14 23 -34z"/>
<path d="M1792 939 c-50 -25 -90 -78 -98 -131 l-6 -37 -72 -3 -71 -3 40 -20
c40 -20 40 -21 43 -82 2 -35 0 -63 -3 -63 -3 0 -19 7 -34 15 -64 32 -95 200
-51 273 16 26 26 32 54 32 37 0 66 -28 66 -62 0 -10 5 -18 11 -18 6 0 8 7 5
16 -3 9 -6 26 -6 39 0 35 -26 55 -71 55 -90 0 -158 -61 -167 -149 -10 -113 66
-211 164 -211 l37 0 -6 -52 c-7 -59 -30 -96 -71 -116 -38 -19 -25 -27 19 -12
90 30 129 92 127 203 0 42 1 77 3 77 2 0 13 -15 25 -34 43 -70 153 -96 238
-55 121 59 136 241 27 325 -52 39 -141 45 -203 13z m156 -43 c3 -15 0 -18 -19
-13 -13 3 -29 1 -36 -5 -9 -8 -17 -8 -24 -1 -11 11 -61 5 -54 -7 3 -5 39 -7
80 -5 74 4 75 3 82 -23 13 -45 7 -156 -11 -190 -20 -38 -28 -44 -74 -46 -70
-5 -113 62 -113 176 -1 106 21 133 107 133 50 0 59 -3 62 -19z m84 -133 c-10
-26 -10 -24 -11 22 0 42 2 46 11 28 7 -15 7 -30 0 -50z m-286 -70 c-2 -3 -13
0 -25 6 -17 9 -22 8 -31 -9 -15 -28 -30 -25 -30 6 0 16 14 39 38 62 l37 37 8
-49 c4 -27 5 -51 3 -53z"/>
<path d="M1875 840 c-4 -7 -18 -9 -31 -6 -13 4 -24 2 -24 -3 0 -13 30 -22 43
-14 6 4 23 6 38 5 15 -1 32 5 39 13 15 18 0 21 -18 3 -8 -8 -15 -8 -26 1 -10
9 -16 9 -21 1z"/>
<path d="M1802 790 c4 -12 22 -15 78 -15 43 0 75 4 77 11 3 10 -53 11 -64 0
-3 -3 -13 -1 -22 4 -10 5 -23 5 -31 0 -9 -5 -20 -4 -29 3 -11 10 -13 9 -9 -3z"/>
<path d="M1871 753 c-1 -7 -10 -13 -22 -13 -12 0 -19 -5 -16 -12 6 -18 87 -13
106 7 15 15 13 16 -14 9 -16 -4 -31 -11 -33 -16 -2 -4 -11 -8 -20 -8 -14 0
-14 2 -3 9 7 5 11 15 8 22 -4 10 -6 10 -6 2z"/>
<path d="M1822 673 c6 -8 20 -10 35 -6 19 4 24 2 21 -8 -3 -8 -13 -13 -23 -11
-9 2 -14 -1 -11 -6 7 -11 76 -12 76 -1 0 4 -8 9 -17 12 -12 2 -7 7 17 14 38
12 32 14 -52 16 -44 2 -54 -1 -46 -10z"/>
<path d="M2040 941 c0 -5 10 -11 23 -13 22 -3 22 -6 25 -161 2 -156 2 -158
-20 -167 -17 -7 -7 -9 42 -9 49 0 59 3 43 9 -22 9 -23 14 -23 127 0 65 -3 128
-6 141 -14 52 20 12 122 -143 60 -91 115 -165 122 -165 9 0 12 42 12 175 0
164 1 176 20 187 32 20 24 27 -32 26 -65 -1 -77 -7 -46 -22 22 -11 23 -18 26
-120 l3 -108 -71 105 c-81 122 -113 147 -189 147 -28 0 -51 -4 -51 -9z"/>
<path d="M2465 938 c-33 -18 -45 -40 -45 -83 0 -47 27 -79 97 -114 63 -31 84
-89 45 -124 -45 -40 -121 -6 -142 63 -9 33 -10 32 -5 -15 7 -62 21 -77 84 -83
89 -8 151 36 151 108 0 49 -27 82 -101 121 -69 37 -86 71 -51 100 36 29 69 12
91 -46 10 -27 11 -26 6 19 -3 28 -11 53 -18 58 -18 11 -89 9 -112 -4z"/>
</g>
</svg>
