<svg width="301" height="119" viewBox="0 0 301 119" fill="none" xmlns="http://www.w3.org/2000/svg">
<path d="M44.5273 1.33618C45.4607 3.06951 49.594 7.73618 53.594 11.6028C61.7273 19.3362 61.994 20.5362 54.394 15.3362C50.9273 13.0695 47.8607 12.0028 43.994 12.1362L38.5273 12.2695L43.8607 13.4695C46.6607 14.1362 51.8607 16.5362 55.194 18.6695C58.5273 20.8028 62.794 22.9362 64.9273 23.3362C66.9273 23.8695 68.5273 24.9362 68.5273 25.6028C68.5273 27.6028 61.8607 25.7362 57.3273 22.4028C54.2607 20.1362 52.394 19.8695 47.3273 20.6695C43.994 21.2028 35.4607 22.2695 28.394 23.2028C20.794 24.1362 13.994 25.8695 11.8607 27.2028C7.06068 30.4028 8.12735 30.9362 14.5273 28.6695C20.794 26.5362 21.8607 27.0695 18.5273 30.6695C16.1273 33.3362 16.1273 33.3362 25.994 33.4695C31.4607 33.4695 36.9273 34.0028 38.394 34.5362C39.8607 35.0695 42.794 34.5362 45.7273 33.2028C50.6607 30.8028 68.5273 28.8028 68.5273 30.6695C68.5273 32.0028 63.7273 33.2028 57.194 33.6028C53.3273 33.7362 54.2607 34.0028 60.5273 34.5362L69.194 35.4695L64.5273 37.0695L59.8607 38.6695L64.9273 37.8695C68.394 37.4695 69.8607 37.6028 69.194 38.5362C68.794 39.3362 67.4607 40.0028 66.394 40.0028C65.3273 40.0028 64.5273 40.6695 64.5273 41.3362C64.5273 42.1362 66.5273 41.8695 69.4607 40.6695C73.7273 38.9362 74.6607 38.9362 77.194 40.5362C78.794 41.6028 80.5273 43.7362 80.9273 45.2028C81.594 48.0028 80.9273 48.0028 70.9273 46.0028C67.8607 45.4695 66.5273 47.4695 69.194 48.5362C70.794 49.0695 71.194 52.8028 71.194 70.1362C71.194 89.7362 71.0607 90.9362 68.5273 91.6028C63.194 93.0695 66.1273 94.0028 75.8607 94.0028C81.3273 94.0028 85.8607 93.7362 85.8607 93.4695C85.8607 93.2028 84.9273 92.2695 83.8607 91.4695C82.1273 90.2695 81.7273 86.1362 81.4607 70.0028C81.194 50.8028 81.3273 50.0028 83.8607 50.4028C88.394 51.0695 91.3273 55.8695 90.9273 61.8695C90.6607 66.2695 89.8607 67.6028 86.9273 69.0695L83.194 70.8028L89.0607 82.4028C92.394 88.8028 96.794 95.8695 98.9273 98.2695C111.194 111.47 135.061 112.803 150.927 101.336C153.994 98.9362 156.527 96.5362 156.527 95.8695C156.527 95.0695 154.527 96.0028 152.127 97.8695C138.794 108.136 118.527 107.603 108.661 96.8028L105.461 93.3362L109.994 93.2028C112.527 93.0695 113.461 92.8028 112.261 92.4028C109.327 91.6028 109.327 91.6028 112.661 81.6028C115.461 73.2028 116.527 72.4028 122.127 74.5362C127.461 76.5362 130.794 91.2028 126.261 92.4028C124.927 92.8028 129.327 93.0695 135.861 93.0695C145.194 93.0695 147.061 92.8028 144.261 91.8695C142.394 91.0695 140.394 89.4695 139.861 88.2695C135.861 78.2695 123.194 41.8695 123.194 40.5362C123.194 35.3362 120.661 40.2695 116.661 53.3362C112.527 66.4028 111.727 68.0028 108.261 69.2028C104.527 70.5362 102.127 74.0028 103.727 75.6028C104.127 76.1362 105.327 75.7362 106.127 74.9362C108.661 72.4028 111.594 72.9362 110.527 75.6028C109.994 76.9362 108.527 80.9362 107.194 84.5362L104.794 90.9362L99.594 81.0695L94.394 71.0695L98.1273 67.7362C105.727 60.8028 101.461 49.3362 90.6607 47.3362C87.994 46.8028 85.8607 45.8695 85.8607 45.2028C85.8607 44.5362 83.7273 41.8695 81.0607 39.2028C75.7273 34.1362 75.7273 31.8695 80.794 35.2028C82.6607 36.4028 84.5273 36.9362 84.9273 36.4028C85.4607 36.0028 85.8607 36.4028 85.8607 37.3362C85.8607 38.2695 86.2607 38.6695 86.794 38.2695C87.194 37.7362 88.9273 38.2695 90.6607 39.3362C93.3273 41.0695 93.7273 40.9362 94.394 39.2028C95.8607 35.2028 95.194 33.6028 91.594 32.9362C89.4607 32.5362 85.594 30.0028 82.794 27.4695C80.1273 24.8028 77.3273 22.6695 76.6607 22.6695C75.8607 22.6695 72.794 19.0695 69.7273 14.6695C63.3273 5.46951 61.194 4.93618 66.394 13.8695C68.2607 17.0695 69.8607 20.1362 69.8607 20.6695C69.8607 21.7362 57.994 12.1362 49.3273 4.00284C44.6607 -0.263824 43.3273 -1.06382 44.5273 1.33618ZM63.8607 29.0695C62.9273 30.0028 51.194 25.3362 51.194 24.0028C51.194 23.3362 54.1273 24.1362 57.8607 25.7362C61.4607 27.2028 64.2607 28.8028 63.8607 29.0695ZM46.794 26.0028C47.3273 27.6028 40.394 32.0028 37.4607 32.0028C36.2607 32.0028 33.7273 31.3362 31.594 30.5362L27.8607 29.2028L33.194 26.6695C38.794 24.0028 45.994 23.7362 46.794 26.0028ZM74.394 28.8028C75.7273 32.1362 75.3273 33.3362 73.194 33.3362C72.1273 33.3362 71.194 32.8028 71.194 32.1362C71.194 31.4695 70.794 30.0028 70.394 28.8028C69.8607 27.4695 70.2607 26.6695 71.594 26.6695C72.6607 26.6695 73.994 27.6028 74.394 28.8028ZM123.061 69.4695C123.194 69.8695 121.727 70.0028 119.861 69.6028C117.994 69.3362 116.527 68.9362 116.527 68.6695C116.527 68.5362 117.194 66.4028 118.127 63.8695L119.594 59.4695L121.327 64.0028C122.261 66.5362 123.061 69.0695 123.061 69.4695Z" fill="white"/>
<path d="M21.594 15.6029C16.6607 16.8029 19.4607 18.0029 26.2607 17.6029C31.0607 17.2029 34.1273 17.7362 35.3273 18.9362C36.5273 20.1362 38.6607 20.4029 41.194 19.8695L45.194 19.0695L40.2607 16.9362C35.594 14.8029 26.794 14.2695 21.594 15.6029Z" fill="white"/>
<path d="M6.12734 36.0028C0.394008 39.6028 -1.47266 44.2695 1.19401 49.3362C4.12734 54.9362 9.72734 58.4028 19.994 60.8028C33.994 64.0028 43.7273 62.1362 54.794 53.8695C57.0607 52.1362 59.4607 50.6695 59.994 50.6695C61.7273 50.6695 55.994 56.2695 52.394 58.1362C49.194 59.7362 48.794 60.8028 48.2607 69.6028C47.4607 80.9362 44.2607 88.2695 37.194 94.4028C32.9273 98.2695 30.1273 99.3362 27.7273 98.2695C27.3273 98.1362 27.0607 90.4028 27.0607 81.2028L27.3273 64.2695L22.5273 63.4695C19.8607 62.9362 16.794 62.1362 15.7273 61.7362C14.1273 61.2028 13.8607 64.0028 13.8607 79.0695C13.8607 98.4028 12.9273 101.336 6.79401 101.336C5.19401 101.336 4.52734 101.869 5.19401 102.403C5.99401 103.069 13.194 103.203 21.194 102.803C33.0607 102.136 37.194 101.336 42.394 98.6695C54.6607 92.4028 63.3273 77.6028 63.0607 62.9362C63.0607 58.8028 62.5273 54.1362 61.994 52.6695C61.3273 51.2028 61.4607 49.3362 62.2607 48.2695C63.194 47.0695 63.0607 46.8028 61.4607 47.4695C60.1273 47.8695 58.794 47.2028 57.8607 45.4695C54.794 39.7362 42.2607 36.0028 18.5273 34.1362C11.994 33.6028 9.59401 34.0028 6.12734 36.0028ZM36.394 41.4695C41.0607 44.0028 47.194 52.1362 47.194 55.7362C47.194 57.8695 32.794 60.4028 25.994 59.4695C15.594 58.0028 4.52734 49.8695 4.52734 43.6028C4.52734 37.0695 25.8607 35.4695 36.394 41.4695ZM51.594 45.8695C54.394 48.0028 54.5273 50.6695 51.8607 50.6695C50.2607 50.6695 47.194 46.9362 47.194 44.8028C47.194 43.4695 49.0607 44.0028 51.594 45.8695ZM58.794 65.7362C57.994 72.0028 55.3273 78.6695 53.594 78.6695C52.6607 78.6695 53.3273 65.7362 54.6607 61.6028C54.9273 60.8028 56.1273 60.0028 57.3273 60.0028C59.0607 60.0028 59.3273 61.0695 58.794 65.7362ZM21.3273 74.0028C21.4607 77.3362 21.0607 80.0028 20.394 80.0028C19.0607 80.0028 18.794 70.2695 20.1273 68.9362C20.5273 68.4028 21.0607 68.0028 21.0607 68.0028C21.194 68.0028 21.3273 70.6695 21.3273 74.0028ZM21.7273 88.1362C21.8607 95.8695 20.394 99.7362 19.194 94.8028C18.2607 90.8028 19.194 81.3362 20.5273 81.3362C21.0607 81.3362 21.594 84.4028 21.7273 88.1362Z" fill="white"/>
<path d="M10.6607 42.9362C7.46068 47.3362 7.99402 50.8028 11.0607 46.9362C14.5273 42.8028 15.4607 43.2028 14.394 48.5362C13.7273 52.6695 13.994 53.3362 17.7273 55.2028C19.8607 56.4028 22.9273 57.3362 24.5273 57.3362C26.9273 57.3362 27.194 56.5362 27.194 48.6695V40.0028H19.994C13.994 40.0028 12.2607 40.5362 10.6607 42.9362ZM21.594 47.3362C21.994 50.6695 21.8607 50.9362 19.994 49.4695C18.794 48.4028 18.1273 47.3362 18.5273 46.9362C18.9273 46.5362 18.394 45.3362 17.594 44.2695C16.2607 42.6695 16.394 42.4028 18.5273 42.8028C20.394 43.2028 21.3273 44.6695 21.594 47.3362Z" fill="white"/>
<path d="M186.127 46.8029C179.461 50.1362 174.127 57.2029 173.061 64.2695L172.261 69.2029L162.661 69.6029L153.194 70.0029L158.527 72.6695C163.861 75.3362 163.861 75.4695 164.261 83.6029C164.527 88.2695 164.261 92.0029 163.861 92.0029C163.461 92.0029 161.327 91.0695 159.327 90.0029C150.794 85.7362 146.661 63.3362 152.527 53.6029C154.661 50.1362 155.994 49.3362 159.727 49.3362C164.661 49.3362 168.527 53.0695 168.527 57.6029C168.527 58.9362 169.194 60.0029 169.994 60.0029C170.794 60.0029 171.061 59.0695 170.661 57.8695C170.261 56.6695 169.861 54.4029 169.861 52.6695C169.861 48.0029 166.394 45.3362 160.394 45.3362C148.394 45.3362 139.327 53.4695 138.127 65.2029C136.794 80.2695 146.927 93.3362 159.994 93.3362H164.927L164.127 100.27C163.194 108.136 160.127 113.07 154.661 115.736C149.594 118.27 151.327 119.336 157.194 117.336C169.194 113.336 174.394 105.07 174.127 90.2695C174.127 84.6695 174.261 80.0029 174.527 80.0029C174.794 80.0029 176.261 82.0029 177.861 84.5362C183.594 93.8695 198.261 97.3362 209.594 91.8695C225.727 84.0029 227.727 59.7362 213.194 48.5362C206.261 43.3362 194.394 42.5362 186.127 46.8029ZM206.927 52.5362C207.327 54.5362 206.927 54.9362 204.394 54.2695C202.661 53.8695 200.527 54.1362 199.594 54.9362C198.394 56.0029 197.327 56.0029 196.394 55.0695C194.927 53.6029 188.261 54.4029 189.194 56.0029C189.594 56.6695 194.394 56.9362 199.861 56.6695C209.727 56.1362 209.861 56.2695 210.794 59.7362C212.527 65.7362 211.727 80.5362 209.327 85.0695C206.661 90.1362 205.594 90.9362 199.461 91.2029C190.127 91.8695 184.394 82.9362 184.394 67.7362C184.261 53.6029 187.194 50.0029 198.661 50.0029C205.327 50.0029 206.527 50.4029 206.927 52.5362ZM218.127 70.2695C216.794 73.7362 216.794 73.4695 216.661 67.3362C216.661 61.7362 216.927 61.2029 218.127 63.6029C219.061 65.6029 219.061 67.6029 218.127 70.2695ZM179.994 79.6029C179.727 80.0029 178.261 79.6029 176.661 78.8029C174.394 77.6029 173.727 77.7362 172.527 80.0029C170.527 83.7362 168.527 83.3362 168.527 79.2029C168.527 77.0695 170.394 74.0029 173.594 70.9362L178.527 66.0029L179.594 72.5362C180.127 76.1362 180.261 79.3362 179.994 79.6029Z" fill="white"/>
<path d="M197.194 60.0029C196.661 60.9363 194.794 61.2029 193.061 60.8029C191.327 60.2696 189.861 60.5363 189.861 61.2029C189.861 62.9363 193.861 64.1363 195.594 63.0696C196.394 62.5363 198.661 62.2696 200.661 62.4029C202.661 62.5363 204.927 61.7363 205.861 60.6696C207.861 58.2696 205.861 57.8696 203.461 60.2696C202.394 61.3363 201.461 61.3363 199.994 60.1363C198.661 58.9363 197.861 58.9363 197.194 60.0029Z" fill="white"/>
<path d="M187.461 66.6696C187.994 68.2696 190.394 68.6696 197.861 68.6696C203.594 68.6696 207.861 68.1362 208.127 67.2029C208.527 65.8696 201.061 65.7362 199.594 67.2029C199.194 67.6029 197.861 67.3362 196.661 66.6696C195.327 66.0029 193.594 66.0029 192.527 66.6696C191.327 67.3362 189.861 67.2029 188.661 66.2696C187.194 64.9362 186.927 65.0696 187.461 66.6696Z" fill="white"/>
<path d="M196.661 71.6029C196.527 72.5362 195.327 73.3362 193.727 73.3362C192.127 73.3362 191.194 74.0029 191.594 74.9362C192.394 77.3362 203.194 76.6695 205.727 74.0029C207.727 72.0029 207.461 71.8695 203.861 72.8029C201.727 73.3362 199.727 74.2695 199.461 74.9362C199.194 75.4695 197.994 76.0029 196.794 76.0029C194.927 76.0029 194.927 75.7362 196.394 74.8029C197.327 74.1362 197.861 72.8029 197.461 71.8695C196.927 70.5362 196.661 70.5362 196.661 71.6029Z" fill="white"/>
<path d="M190.127 82.2695C190.927 83.3362 192.794 83.6028 194.794 83.0695C197.327 82.5362 197.994 82.8028 197.594 84.1362C197.194 85.2028 195.861 85.8695 194.527 85.6028C193.327 85.3362 192.661 85.7362 193.061 86.4028C193.994 87.8695 203.194 88.0028 203.194 86.5362C203.194 86.0028 202.127 85.3362 200.927 84.9362C199.327 84.6695 199.994 84.0028 203.194 83.0695C208.261 81.4695 207.461 81.2028 196.261 80.9362C190.394 80.6695 189.061 81.0695 190.127 82.2695Z" fill="white"/>
<path d="M219.194 46.5362C219.194 47.2028 220.527 48.0028 222.261 48.2695C225.194 48.6695 225.194 49.0695 225.594 69.7362C225.861 90.5362 225.861 90.8028 222.927 92.0028C220.661 92.9362 221.994 93.2028 228.527 93.2028C235.061 93.2028 236.394 92.8028 234.261 92.0028C231.327 90.8028 231.194 90.1362 231.194 75.0695C231.194 66.4028 230.794 58.0028 230.394 56.2695C228.527 49.3362 233.061 54.6695 246.661 75.3362C254.661 87.4695 261.994 97.3362 262.927 97.3362C264.127 97.3362 264.527 91.7362 264.527 74.0028C264.527 52.1362 264.661 50.5362 267.194 49.0695C271.461 46.4028 270.394 45.4695 262.927 45.6028C254.261 45.7362 252.661 46.5362 256.794 48.5362C259.727 50.0028 259.861 50.9362 260.261 64.5362L260.661 78.9362L251.194 64.9362C240.394 48.6695 236.127 45.3362 225.994 45.3362C222.261 45.3362 219.194 45.8695 219.194 46.5362Z" fill="white"/>
<path d="M275.861 46.9362C271.461 49.3362 269.861 52.2696 269.861 58.0029C269.861 64.2696 273.461 68.5362 282.794 73.2029C291.194 77.3362 293.994 85.0696 288.794 89.7362C282.794 95.0696 272.661 90.5362 269.861 81.3362C268.661 76.9362 268.527 77.0696 269.194 83.3362C270.127 91.6029 271.994 93.6029 280.394 94.4029C292.261 95.4696 300.527 89.6029 300.527 80.0029C300.527 73.4696 296.927 69.0696 287.061 63.8696C277.861 58.9362 275.594 54.4029 280.261 50.5362C285.061 46.6696 289.461 48.9362 292.394 56.6696C293.727 60.2696 293.861 60.1362 293.194 54.1362C292.794 50.4029 291.727 47.0696 290.794 46.4029C288.394 44.9362 278.927 45.2029 275.861 46.9362Z" fill="white"/>
</svg>
